<svg version="1.1" viewBox="0 0 1500 140" xmlns="http://www.w3.org/2000/svg">
<defs>
    <style>
        svg {
            fill: #1d1d1b;
        }
    </style>
</defs>
<path d="m1311.5 60.683a14.37 14.37 0 0 0-12.23-6.46 16 16 0 0 0-7.18 1.55 15.13 15.13 0 0 0-5.34 4.41 20.43 20.43 0 0 0-3.32 6.76 31.1 31.1 0 0 0-1.16 8.61 30.19 30.19 0 0 0 1.34 9.33 21.21 21.21 0 0 0 3.7 7 15.83 15.83 0 0 0 5.63 4.37 17.13 17.13 0 0 0 7.22 1.51q7.72 0 11.51-6.13l0.08 5h10.52v-56.44h-10.77zm-2.23 24.87a8.18 8.18 0 0 1-6.6 3.27 8 8 0 0 1-6.72-3.48 14.67 14.67 0 0 1-2.6-9q0-12.76 9.41-12.77 9.15 0 9.15 13.44a13.25 13.25 0 0 1-2.64 8.54m17.6-35.2h10.92v-10.16h-10.92zm0 46.29h10.92v-41.33h-10.92zm54.69-41.33h-11.51l-8.78 27.3-8.65-27.3h-12.14l14.79 41.33h11.42zm31.37 3.15a13.34 13.34 0 0 0-5.46-3.15 27.27 27.27 0 0 0-8.27-1.09 29.05 29.05 0 0 0-8.4 1 14.51 14.51 0 0 0-5.59 3 11.24 11.24 0 0 0-3.11 4.62 19 19 0 0 0-1 5.88h10.17a7.86 7.86 0 0 1 2-4.45c1.1-1.12 2.9-1.68 5.42-1.68a9.78 9.78 0 0 1 5.08 1.13 3.52 3.52 0 0 1 1.89 3.15 3.52 3.52 0 0 1-1.39 3.18c-1 0.65-2.81 1.16-5.55 1.55s-5.28 0.83-7.6 1.31a18.88 18.88 0 0 0-6 2.22 10.66 10.66 0 0 0-3.94 4.16 14.89 14.89 0 0 0-1.43 7.1 10.78 10.78 0 0 0 3.31 8.19q3.33 3.15 10.46 3.15a19.58 19.58 0 0 0 7.39-1.3 13.52 13.52 0 0 0 5.13-3.49 17.12 17.12 0 0 0 0.67 3.7h10.17v-26.13a23.91 23.91 0 0 0-0.93-6.93 12.05 12.05 0 0 0-3-5.12m-7.1 22.47a7.73 7.73 0 0 1-0.8 3.48 9.5 9.5 0 0 1-2.1 2.86 9.62 9.62 0 0 1-3.11 1.93 10.4 10.4 0 0 1-3.9 0.72q-5.3 0-5.29-4.62a5 5 0 0 1 1.76-4.12c1.18-1 3.33-1.73 6.47-2.35a46 46 0 0 0 4.62-1.09 6 6 0 0 0 2.44-1.35zm33.65-16.58a6.62 6.62 0 0 1-3.44 0.88 6 6 0 0 1-4.71-2 8.49 8.49 0 0 1-2-5.41h20.61q0-8.94-3.55-13.37t-10.49-4.45a16.5 16.5 0 0 0-6.14 1.06 12.22 12.22 0 0 0-4.51 3.07 13.5 13.5 0 0 0-2.83 4.81 18.91 18.91 0 0 0-1 6.26q0 16.29 14.95 16.29a13.78 13.78 0 0 0 8.28-2.49 13.16 13.16 0 0 0 4.87-7.11h-8.15a4 4 0 0 1-1.91 2.46m-7.91-16.35a5.63 5.63 0 0 1 4.1-1.73 6.45 6.45 0 0 1 2.26 0.4 5.56 5.56 0 0 1 1.94 1.21 6.13 6.13 0 0 1 1.4 2.06 8.38 8.38 0 0 1 0.58 2.89h-12.25a7.43 7.43 0 0 1 2-4.84"/>
<rect x="1421.7" y="75.283" width="28.35" height="5.1"/>
</svg>
